<?xml version="1.0" encoding="utf-8"?>
<!-- Generator: Adobe Illustrator 26.0.3, SVG Export Plug-In . SVG Version: 6.00 Build 0)  -->
<svg version="1.1" id="Layer_1" xmlns="http://www.w3.org/2000/svg" xmlns:xlink="http://www.w3.org/1999/xlink" x="0px" y="0px"
	 viewBox="0 0 1869.7 2159" style="enable-background:new 0 0 1869.7 2159;" xml:space="preserve">
<style type="text/css">
	.st0{fill:#FFFFFF;}
	.st1{fill:#CC33CC;}
	.st2{fill:#00B7FF;}
	.st3{fill:#FF3300;}
	.st4{fill:#FFFF00;}
	.st5{fill:#DEFE12;}
	.st6{fill:#B53CB1;}
	.st7{fill:#FF4900;}
	.st8{fill:#30BBFE;}
</style>
<g>
	<g>
		<g>
			<polygon class="st0" points="934.9,1079.5 1869.7,539.7 934.9,0 0,539.7 			"/>
			<g>
				<polygon class="st0" points="934.9,1079.5 1869.7,539.7 1869.7,1619.3 934.9,2159 				"/>
			</g>
			<g>
				<polygon class="st0" points="934.9,1079.5 0,539.7 0,1619.3 934.9,2159 				"/>
			</g>
		</g>
		<g>
			<polygon class="st5" points="979.4,559 1374.4,787.1 1769.5,559 1374.5,330.9 			"/>
			<polygon class="st6" points="539.8,305.2 934.9,533.3 1330,305.2 935,77.1 			"/>
			<polygon class="st7" points="539.8,812.8 934.9,1040.9 1329.9,812.8 935,584.7 			"/>
			<polygon class="st8" points="100.3,559 495.3,787.1 890.5,558.9 495.6,330.8 			"/>
			<polygon class="st5" points="1363.3,865.5 968.3,1093.6 968.3,1561 1363.3,1332.9 			"/>
			<polygon class="st6" points="1802.9,611.8 1407.8,839.8 1407.8,1307.2 1802.9,1079.1 			"/>
			<polygon class="st8" points="1407.8,1819.1 1802.9,1591 1802.9,1123.7 1407.8,1351.7 			"/>
			<polygon class="st7" points="968.3,2072.9 1363.3,1844.8 1363.3,1377.4 968.3,1605.5 			"/>
			<polygon class="st7" points="461.9,1351.7 66.8,1123.7 66.8,1591 461.9,1819.1 			"/>
			<polygon class="st8" points="461.9,1307.2 461.9,839.8 66.8,611.8 66.8,1079.1 			"/>
			<polygon class="st6" points="901.4,1093.6 506.4,865.5 506.4,1332.9 901.4,1561 			"/>
			<polygon class="st5" points="506.4,1844.8 901.4,2072.9 901.4,1605.5 506.4,1377.4 			"/>
		</g>
		<path d="M934.9,0L0,539.7v1079.5L934.9,2159l934.9-539.7V539.7L934.9,0z M1769.5,559l-395,228.1L979.4,559l395.1-228.1L1769.5,559
			z M539.8,812.8L935,584.7l394.9,228.2l-395,228.1L539.8,812.8z M901.4,1093.6V1561l-395-228.1V865.5L901.4,1093.6z M968.3,1093.6
			l395-228.1v467.4l-395,228.1V1093.6z M935,77.1L1330,305.2L934.9,533.3l-395-228.1L935,77.1z M495.6,330.8l394.9,228.2
			L495.3,787.1L100.3,559L495.6,330.8z M66.8,611.8l395,228.1v467.4l-395-228.1V611.8z M66.8,1123.7l395,228.1v467.4L66.8,1591
			V1123.7z M506.4,1844.8v-467.4l395,228.1v467.4L506.4,1844.8z M968.3,1605.5l395-228.1v467.4l-395,228.1V1605.5z M1802.9,1591
			l-395,228.1v-467.4l395-228.1V1591z M1802.9,1079.1l-395,228.1V839.8l395-228.1V1079.1z"/>
	</g>
</g>
</svg>
